<svg width="136" height="68" viewBox="0 0 136 68" fill="none" xmlns="http://www.w3.org/2000/svg">
<g filter="url(#filter0_b)">
<path d="M136 68C136 59.0701 134.241 50.2277 130.824 41.9775C127.406 33.7274 122.398 26.2311 116.083 19.9167C109.769 13.6024 102.273 8.59351 94.0224 5.17619C85.7723 1.75887 76.9299 -3.90338e-07 68 0C59.0701 3.90338e-07 50.2276 1.75887 41.9775 5.17619C33.7274 8.59351 26.2311 13.6024 19.9167 19.9167C13.6023 26.2311 8.59348 33.7274 5.17616 41.9775C1.75884 50.2277 -3.12983e-05 59.0701 -3.05176e-05 68L68 68H136Z" fill="url(#paint0_linear)" fill-opacity="0.03"/>
</g>
<defs>
<filter id="filter0_b" x="-20" y="-20" width="176" height="108" filterUnits="userSpaceOnUse" color-interpolation-filters="sRGB">
<feFlood flood-opacity="0" result="BackgroundImageFix"/>
<feGaussianBlur in="BackgroundImage" stdDeviation="10"/>
<feComposite in2="SourceAlpha" operator="in" result="effect1_backgroundBlur"/>
<feBlend mode="normal" in="SourceGraphic" in2="effect1_backgroundBlur" result="shape"/>
</filter>
<linearGradient id="paint0_linear" x1="7.99997" y1="-20" x2="108" y2="165" gradientUnits="userSpaceOnUse">
<stop stop-color="#C4C4C4"/>
<stop offset="1" stop-color="#C4C4C4" stop-opacity="0"/>
</linearGradient>
</defs>
</svg>
